<svg width="124" height="206" viewBox="0 0 124 206" fill="none" xmlns="http://www.w3.org/2000/svg">
<g opacity="0.6">
<circle cx="122.313" cy="1.68707" r="1.68707" transform="rotate(90 122.313 1.68707)" fill="#FF00FF"/>
<circle cx="122.313" cy="109.66" r="1.68707" transform="rotate(90 122.313 109.66)" fill="#FF00FF"/>
<circle cx="68.327" cy="1.68707" r="1.68707" transform="rotate(90 68.327 1.68707)" fill="#FF00FF"/>
<circle cx="68.327" cy="109.66" r="1.68707" transform="rotate(90 68.327 109.66)" fill="#FF00FF"/>
<circle cx="95.3199" cy="1.68707" r="1.68707" transform="rotate(90 95.3199 1.68707)" fill="#FF00FF"/>
<circle cx="95.3199" cy="109.66" r="1.68707" transform="rotate(90 95.3199 109.66)" fill="#FF00FF"/>
<circle cx="41.334" cy="1.68707" r="1.68707" transform="rotate(90 41.334 1.68707)" fill="#FF00FF"/>
<circle cx="41.334" cy="109.66" r="1.68707" transform="rotate(90 41.334 109.66)" fill="#FF00FF"/>
<circle cx="108.816" cy="1.68707" r="1.68707" transform="rotate(90 108.816 1.68707)" fill="#FF00FF"/>
<circle cx="108.816" cy="109.66" r="1.68707" transform="rotate(90 108.816 109.66)" fill="#FF00FF"/>
<circle cx="54.8305" cy="1.68707" r="1.68707" transform="rotate(90 54.8305 1.68707)" fill="#FF00FF"/>
<circle cx="54.8305" cy="109.66" r="1.68707" transform="rotate(90 54.8305 109.66)" fill="#FF00FF"/>
<circle cx="81.8235" cy="1.68707" r="1.68707" transform="rotate(90 81.8235 1.68707)" fill="#FF00FF"/>
<circle cx="81.8235" cy="109.66" r="1.68707" transform="rotate(90 81.8235 109.66)" fill="#FF00FF"/>
<circle cx="27.8375" cy="1.68707" r="1.68707" transform="rotate(90 27.8375 1.68707)" fill="#FF00FF"/>
<circle cx="27.8375" cy="109.66" r="1.68707" transform="rotate(90 27.8375 109.66)" fill="#FF00FF"/>
<circle cx="122.313" cy="15.1837" r="1.68707" transform="rotate(90 122.313 15.1837)" fill="#FF00FF"/>
<circle cx="122.313" cy="123.156" r="1.68707" transform="rotate(90 122.313 123.156)" fill="#FF00FF"/>
<circle cx="68.327" cy="15.1837" r="1.68707" transform="rotate(90 68.327 15.1837)" fill="#FF00FF"/>
<circle cx="68.327" cy="123.156" r="1.68707" transform="rotate(90 68.327 123.156)" fill="#FF00FF"/>
<circle cx="95.3199" cy="15.1837" r="1.68707" transform="rotate(90 95.3199 15.1837)" fill="#FF00FF"/>
<circle cx="95.3199" cy="123.156" r="1.68707" transform="rotate(90 95.3199 123.156)" fill="#FF00FF"/>
<circle cx="41.334" cy="15.1837" r="1.68707" transform="rotate(90 41.334 15.1837)" fill="#FF00FF"/>
<circle cx="41.334" cy="123.156" r="1.68707" transform="rotate(90 41.334 123.156)" fill="#FF00FF"/>
<circle cx="108.816" cy="15.1837" r="1.68707" transform="rotate(90 108.816 15.1837)" fill="#FF00FF"/>
<circle cx="108.816" cy="123.156" r="1.68707" transform="rotate(90 108.816 123.156)" fill="#FF00FF"/>
<circle cx="54.8305" cy="15.1837" r="1.68707" transform="rotate(90 54.8305 15.1837)" fill="#FF00FF"/>
<circle cx="54.8305" cy="123.156" r="1.68707" transform="rotate(90 54.8305 123.156)" fill="#FF00FF"/>
<circle cx="81.8235" cy="15.1837" r="1.68707" transform="rotate(90 81.8235 15.1837)" fill="#FF00FF"/>
<circle cx="81.8235" cy="123.156" r="1.68707" transform="rotate(90 81.8235 123.156)" fill="#FF00FF"/>
<circle cx="27.8375" cy="15.1837" r="1.68707" transform="rotate(90 27.8375 15.1837)" fill="#FF00FF"/>
<circle cx="27.8375" cy="123.156" r="1.68707" transform="rotate(90 27.8375 123.156)" fill="#FF00FF"/>
<circle cx="122.313" cy="28.6802" r="1.68707" transform="rotate(90 122.313 28.6802)" fill="#FF00FF"/>
<circle cx="122.313" cy="136.653" r="1.68707" transform="rotate(90 122.313 136.653)" fill="#FF00FF"/>
<circle cx="68.327" cy="28.6802" r="1.68707" transform="rotate(90 68.327 28.6802)" fill="#FF00FF"/>
<circle cx="68.327" cy="136.653" r="1.68707" transform="rotate(90 68.327 136.653)" fill="#FF00FF"/>
<circle cx="95.3199" cy="28.6802" r="1.68707" transform="rotate(90 95.3199 28.6802)" fill="#FF00FF"/>
<circle cx="95.3199" cy="136.653" r="1.68707" transform="rotate(90 95.3199 136.653)" fill="#FF00FF"/>
<circle cx="41.334" cy="28.6802" r="1.68707" transform="rotate(90 41.334 28.6802)" fill="#FF00FF"/>
<circle cx="41.334" cy="136.653" r="1.68707" transform="rotate(90 41.334 136.653)" fill="#FF00FF"/>
<circle cx="108.816" cy="28.6802" r="1.68707" transform="rotate(90 108.816 28.6802)" fill="#FF00FF"/>
<circle cx="108.816" cy="136.653" r="1.68707" transform="rotate(90 108.816 136.653)" fill="#FF00FF"/>
<circle cx="54.8305" cy="28.6802" r="1.68707" transform="rotate(90 54.8305 28.6802)" fill="#FF00FF"/>
<circle cx="54.8305" cy="136.653" r="1.68707" transform="rotate(90 54.8305 136.653)" fill="#FF00FF"/>
<circle cx="81.8235" cy="28.6802" r="1.68707" transform="rotate(90 81.8235 28.6802)" fill="#FF00FF"/>
<circle cx="81.8235" cy="136.653" r="1.68707" transform="rotate(90 81.8235 136.653)" fill="#FF00FF"/>
<circle cx="27.8375" cy="28.6802" r="1.68707" transform="rotate(90 27.8375 28.6802)" fill="#FF00FF"/>
<circle cx="27.8375" cy="136.653" r="1.68707" transform="rotate(90 27.8375 136.653)" fill="#FF00FF"/>
<circle cx="122.313" cy="42.1767" r="1.68707" transform="rotate(90 122.313 42.1767)" fill="#FF00FF"/>
<circle cx="122.313" cy="150.149" r="1.68707" transform="rotate(90 122.313 150.149)" fill="#FF00FF"/>
<circle cx="68.327" cy="42.1767" r="1.68707" transform="rotate(90 68.327 42.1767)" fill="#FF00FF"/>
<circle cx="68.327" cy="150.149" r="1.68707" transform="rotate(90 68.327 150.149)" fill="#FF00FF"/>
<circle cx="95.3199" cy="42.1767" r="1.68707" transform="rotate(90 95.3199 42.1767)" fill="#FF00FF"/>
<circle cx="95.3199" cy="150.149" r="1.68707" transform="rotate(90 95.3199 150.149)" fill="#FF00FF"/>
<circle cx="41.334" cy="42.1767" r="1.68707" transform="rotate(90 41.334 42.1767)" fill="#FF00FF"/>
<circle cx="41.334" cy="150.149" r="1.68707" transform="rotate(90 41.334 150.149)" fill="#FF00FF"/>
<circle cx="108.816" cy="42.1767" r="1.68707" transform="rotate(90 108.816 42.1767)" fill="#FF00FF"/>
<circle cx="108.816" cy="150.149" r="1.68707" transform="rotate(90 108.816 150.149)" fill="#FF00FF"/>
<circle cx="54.8305" cy="42.1767" r="1.68707" transform="rotate(90 54.8305 42.1767)" fill="#FF00FF"/>
<circle cx="54.8305" cy="150.149" r="1.68707" transform="rotate(90 54.8305 150.149)" fill="#FF00FF"/>
<circle cx="81.8235" cy="42.1767" r="1.68707" transform="rotate(90 81.8235 42.1767)" fill="#FF00FF"/>
<circle cx="81.8235" cy="150.149" r="1.68707" transform="rotate(90 81.8235 150.149)" fill="#FF00FF"/>
<circle cx="27.8375" cy="42.1767" r="1.68707" transform="rotate(90 27.8375 42.1767)" fill="#FF00FF"/>
<circle cx="27.8375" cy="150.149" r="1.68707" transform="rotate(90 27.8375 150.149)" fill="#FF00FF"/>
<circle cx="122.313" cy="55.6733" r="1.68707" transform="rotate(90 122.313 55.6733)" fill="#FF00FF"/>
<circle cx="122.313" cy="163.646" r="1.68707" transform="rotate(90 122.313 163.646)" fill="#FF00FF"/>
<circle cx="68.327" cy="55.6733" r="1.68707" transform="rotate(90 68.327 55.6733)" fill="#FF00FF"/>
<circle cx="68.327" cy="163.646" r="1.68707" transform="rotate(90 68.327 163.646)" fill="#FF00FF"/>
<circle cx="95.3199" cy="55.6733" r="1.68707" transform="rotate(90 95.3199 55.6733)" fill="#FF00FF"/>
<circle cx="95.3199" cy="163.646" r="1.68707" transform="rotate(90 95.3199 163.646)" fill="#FF00FF"/>
<circle cx="41.334" cy="55.6733" r="1.68707" transform="rotate(90 41.334 55.6733)" fill="#FF00FF"/>
<circle cx="41.334" cy="163.646" r="1.68707" transform="rotate(90 41.334 163.646)" fill="#FF00FF"/>
<circle cx="108.816" cy="55.6733" r="1.68707" transform="rotate(90 108.816 55.6733)" fill="#FF00FF"/>
<circle cx="108.816" cy="163.646" r="1.68707" transform="rotate(90 108.816 163.646)" fill="#FF00FF"/>
<circle cx="54.8305" cy="55.6733" r="1.68707" transform="rotate(90 54.8305 55.6733)" fill="#FF00FF"/>
<circle cx="54.8305" cy="163.646" r="1.68707" transform="rotate(90 54.8305 163.646)" fill="#FF00FF"/>
<circle cx="81.8235" cy="55.6733" r="1.68707" transform="rotate(90 81.8235 55.6733)" fill="#FF00FF"/>
<circle cx="81.8235" cy="163.646" r="1.68707" transform="rotate(90 81.8235 163.646)" fill="#FF00FF"/>
<circle cx="27.8375" cy="55.6733" r="1.68707" transform="rotate(90 27.8375 55.6733)" fill="#FF00FF"/>
<circle cx="27.8375" cy="163.646" r="1.68707" transform="rotate(90 27.8375 163.646)" fill="#FF00FF"/>
<circle cx="122.313" cy="69.1699" r="1.68707" transform="rotate(90 122.313 69.1699)" fill="#FF00FF"/>
<circle cx="122.313" cy="177.142" r="1.68707" transform="rotate(90 122.313 177.142)" fill="#FF00FF"/>
<circle cx="68.327" cy="69.1699" r="1.68707" transform="rotate(90 68.327 69.1699)" fill="#FF00FF"/>
<circle cx="68.327" cy="177.142" r="1.68707" transform="rotate(90 68.327 177.142)" fill="#FF00FF"/>
<circle cx="95.3199" cy="69.1699" r="1.68707" transform="rotate(90 95.3199 69.1699)" fill="#FF00FF"/>
<circle cx="95.3199" cy="177.142" r="1.68707" transform="rotate(90 95.3199 177.142)" fill="#FF00FF"/>
<circle cx="41.334" cy="69.1699" r="1.68707" transform="rotate(90 41.334 69.1699)" fill="#FF00FF"/>
<circle cx="41.334" cy="177.142" r="1.68707" transform="rotate(90 41.334 177.142)" fill="#FF00FF"/>
<circle cx="108.816" cy="69.1699" r="1.68707" transform="rotate(90 108.816 69.1699)" fill="#FF00FF"/>
<circle cx="108.816" cy="177.142" r="1.68707" transform="rotate(90 108.816 177.142)" fill="#FF00FF"/>
<circle cx="54.8305" cy="69.1699" r="1.68707" transform="rotate(90 54.8305 69.1699)" fill="#FF00FF"/>
<circle cx="54.8305" cy="177.142" r="1.68707" transform="rotate(90 54.8305 177.142)" fill="#FF00FF"/>
<circle cx="81.8235" cy="69.1699" r="1.68707" transform="rotate(90 81.8235 69.1699)" fill="#FF00FF"/>
<circle cx="81.8235" cy="177.142" r="1.68707" transform="rotate(90 81.8235 177.142)" fill="#FF00FF"/>
<circle cx="27.8375" cy="69.1699" r="1.68707" transform="rotate(90 27.8375 69.1699)" fill="#FF00FF"/>
<circle cx="27.8375" cy="177.142" r="1.68707" transform="rotate(90 27.8375 177.142)" fill="#FF00FF"/>
<circle cx="122.313" cy="82.6665" r="1.68707" transform="rotate(90 122.313 82.6665)" fill="#FF00FF"/>
<circle cx="122.313" cy="190.639" r="1.68707" transform="rotate(90 122.313 190.639)" fill="#FF00FF"/>
<circle cx="68.327" cy="82.6665" r="1.68707" transform="rotate(90 68.327 82.6665)" fill="#FF00FF"/>
<circle cx="68.327" cy="190.639" r="1.68707" transform="rotate(90 68.327 190.639)" fill="#FF00FF"/>
<circle cx="95.3199" cy="82.6665" r="1.68707" transform="rotate(90 95.3199 82.6665)" fill="#FF00FF"/>
<circle cx="95.3199" cy="190.639" r="1.68707" transform="rotate(90 95.3199 190.639)" fill="#FF00FF"/>
<circle cx="41.334" cy="82.6665" r="1.68707" transform="rotate(90 41.334 82.6665)" fill="#FF00FF"/>
<circle cx="41.334" cy="190.639" r="1.68707" transform="rotate(90 41.334 190.639)" fill="#FF00FF"/>
<circle cx="108.816" cy="82.6665" r="1.68707" transform="rotate(90 108.816 82.6665)" fill="#FF00FF"/>
<circle cx="108.816" cy="190.639" r="1.68707" transform="rotate(90 108.816 190.639)" fill="#FF00FF"/>
<circle cx="54.8305" cy="82.6665" r="1.68707" transform="rotate(90 54.8305 82.6665)" fill="#FF00FF"/>
<circle cx="54.8305" cy="190.639" r="1.68707" transform="rotate(90 54.8305 190.639)" fill="#FF00FF"/>
<circle cx="81.8235" cy="82.6665" r="1.68707" transform="rotate(90 81.8235 82.6665)" fill="#FF00FF"/>
<circle cx="81.8235" cy="190.639" r="1.68707" transform="rotate(90 81.8235 190.639)" fill="#FF00FF"/>
<circle cx="27.8375" cy="82.6665" r="1.68707" transform="rotate(90 27.8375 82.6665)" fill="#FF00FF"/>
<circle cx="27.8375" cy="190.639" r="1.68707" transform="rotate(90 27.8375 190.639)" fill="#FF00FF"/>
<circle cx="122.313" cy="96.1631" r="1.68707" transform="rotate(90 122.313 96.1631)" fill="#FF00FF"/>
<circle cx="122.313" cy="204.136" r="1.68707" transform="rotate(90 122.313 204.136)" fill="#FF00FF"/>
<circle cx="68.327" cy="96.1631" r="1.68707" transform="rotate(90 68.327 96.1631)" fill="#FF00FF"/>
<circle cx="68.327" cy="204.135" r="1.68707" transform="rotate(90 68.327 204.135)" fill="#FF00FF"/>
<circle cx="95.3199" cy="96.1631" r="1.68707" transform="rotate(90 95.3199 96.1631)" fill="#FF00FF"/>
<circle cx="95.3199" cy="204.135" r="1.68707" transform="rotate(90 95.3199 204.135)" fill="#FF00FF"/>
<circle cx="41.334" cy="96.1631" r="1.68707" transform="rotate(90 41.334 96.1631)" fill="#FF00FF"/>
<circle cx="41.334" cy="204.135" r="1.68707" transform="rotate(90 41.334 204.135)" fill="#FF00FF"/>
<circle cx="108.816" cy="96.1631" r="1.68707" transform="rotate(90 108.816 96.1631)" fill="#FF00FF"/>
<circle cx="108.816" cy="204.135" r="1.68707" transform="rotate(90 108.816 204.135)" fill="#FF00FF"/>
<circle cx="54.8305" cy="96.1631" r="1.68707" transform="rotate(90 54.8305 96.1631)" fill="#FF00FF"/>
<circle cx="54.8305" cy="204.135" r="1.68707" transform="rotate(90 54.8305 204.135)" fill="#FF00FF"/>
<circle cx="81.8235" cy="96.1631" r="1.68707" transform="rotate(90 81.8235 96.1631)" fill="#FF00FF"/>
<circle cx="81.8235" cy="204.135" r="1.68707" transform="rotate(90 81.8235 204.135)" fill="#FF00FF"/>
<circle cx="27.8375" cy="96.1631" r="1.68707" transform="rotate(90 27.8375 96.1631)" fill="#FF00FF"/>
<circle cx="27.8375" cy="204.135" r="1.68707" transform="rotate(90 27.8375 204.135)" fill="#FF00FF"/>
<circle cx="15.1845" cy="1.68707" r="1.68707" transform="rotate(90 15.1845 1.68707)" fill="#FF00FF"/>
<circle cx="15.1845" cy="109.66" r="1.68707" transform="rotate(90 15.1845 109.66)" fill="#FF00FF"/>
<circle cx="1.68799" cy="1.68707" r="1.68707" transform="rotate(90 1.68799 1.68707)" fill="#FF00FF"/>
<circle cx="1.68799" cy="109.66" r="1.68707" transform="rotate(90 1.68799 109.66)" fill="#FF00FF"/>
<circle cx="15.1845" cy="15.1837" r="1.68707" transform="rotate(90 15.1845 15.1837)" fill="#FF00FF"/>
<circle cx="15.1845" cy="123.156" r="1.68707" transform="rotate(90 15.1845 123.156)" fill="#FF00FF"/>
<circle cx="1.68799" cy="15.1837" r="1.68707" transform="rotate(90 1.68799 15.1837)" fill="#FF00FF"/>
<circle cx="1.68799" cy="123.156" r="1.68707" transform="rotate(90 1.68799 123.156)" fill="#FF00FF"/>
<circle cx="15.1845" cy="28.6802" r="1.68707" transform="rotate(90 15.1845 28.6802)" fill="#FF00FF"/>
<circle cx="15.1845" cy="136.653" r="1.68707" transform="rotate(90 15.1845 136.653)" fill="#FF00FF"/>
<circle cx="1.68799" cy="28.6802" r="1.68707" transform="rotate(90 1.68799 28.6802)" fill="#FF00FF"/>
<circle cx="1.68799" cy="136.653" r="1.68707" transform="rotate(90 1.68799 136.653)" fill="#FF00FF"/>
<circle cx="15.1845" cy="42.1767" r="1.68707" transform="rotate(90 15.1845 42.1767)" fill="#FF00FF"/>
<circle cx="15.1845" cy="150.149" r="1.68707" transform="rotate(90 15.1845 150.149)" fill="#FF00FF"/>
<circle cx="1.68799" cy="42.1767" r="1.68707" transform="rotate(90 1.68799 42.1767)" fill="#FF00FF"/>
<circle cx="1.68799" cy="150.149" r="1.68707" transform="rotate(90 1.68799 150.149)" fill="#FF00FF"/>
<circle cx="15.1845" cy="55.6733" r="1.68707" transform="rotate(90 15.1845 55.6733)" fill="#FF00FF"/>
<circle cx="15.1845" cy="163.646" r="1.68707" transform="rotate(90 15.1845 163.646)" fill="#FF00FF"/>
<circle cx="1.68799" cy="55.6733" r="1.68707" transform="rotate(90 1.68799 55.6733)" fill="#FF00FF"/>
<circle cx="1.68799" cy="163.646" r="1.68707" transform="rotate(90 1.68799 163.646)" fill="#FF00FF"/>
<circle cx="15.1845" cy="69.1699" r="1.68707" transform="rotate(90 15.1845 69.1699)" fill="#FF00FF"/>
<circle cx="15.1845" cy="177.142" r="1.68707" transform="rotate(90 15.1845 177.142)" fill="#FF00FF"/>
<circle cx="1.68799" cy="69.1699" r="1.68707" transform="rotate(90 1.68799 69.1699)" fill="#FF00FF"/>
<circle cx="1.68799" cy="177.142" r="1.68707" transform="rotate(90 1.68799 177.142)" fill="#FF00FF"/>
<circle cx="15.1845" cy="82.6665" r="1.68707" transform="rotate(90 15.1845 82.6665)" fill="#FF00FF"/>
<circle cx="15.1845" cy="190.639" r="1.68707" transform="rotate(90 15.1845 190.639)" fill="#FF00FF"/>
<circle cx="1.68799" cy="82.6665" r="1.68707" transform="rotate(90 1.68799 82.6665)" fill="#FF00FF"/>
<circle cx="1.68799" cy="190.639" r="1.68707" transform="rotate(90 1.68799 190.639)" fill="#FF00FF"/>
<circle cx="15.1845" cy="96.1631" r="1.68707" transform="rotate(90 15.1845 96.1631)" fill="#FF00FF"/>
<circle cx="15.1845" cy="204.135" r="1.68707" transform="rotate(90 15.1845 204.135)" fill="#FF00FF"/>
<circle cx="1.68799" cy="96.1631" r="1.68707" transform="rotate(90 1.68799 96.1631)" fill="#FF00FF"/>
<circle cx="1.68799" cy="204.135" r="1.68707" transform="rotate(90 1.68799 204.135)" fill="#FF00FF"/>
</g>
</svg>
